<svg xmlns="http://www.w3.org/2000/svg" xmlns:xlink="http://www.w3.org/1999/xlink" version="1.1" width="466" height="423.8909912109375" enable-background="new 0 0 466 423.891" xml:space="preserve" style=""><rect id="backgroundrect" width="100%" height="100%" x="0" y="0" fill="none" stroke="none"/>


<g class="currentLayer" style=""><title>Layer 1</title><rect x="-43.5" y="37.005001068115234" display="none" fill-rule="evenodd" clip-rule="evenodd" fill="#E7E7E7" width="792" height="612" id="svg_1"/><g id="svg_2" class="" stroke-opacity="1" stroke="#141415" fill-opacity="1" fill="#32d079">
	<path id="outline_7_" fill-rule="evenodd" clip-rule="evenodd" d="M243.72030161190034,167.68734919404983 h47.146 v48.194 h23.837 c11.008,0 22.33,-1.9620000000000002 32.755,-5.494 c5.123,-1.7360000000000002 10.872,-4.154 15.926,-7.193 c-6.6560000000000015,-8.689 -10.053,-19.661 -11.054,-30.476 c-1.358,-14.71 1.609,-33.855 11.564,-45.368 l4.956,-5.732 l5.905,4.747 c14.867,11.946 27.372,28.638 29.577,47.665 c17.901,-5.266 38.921,-4.02 54.701,5.088 l6.475,3.734 l-3.408,6.652 c-13.345,26.046 -41.246,34.113 -68.524,32.687 c-40.817,101.663 -129.68,149.794 -237.428,149.794 c-55.666,0 -106.738,-20.81 -135.821,-70.197 l-0.4770000000000001,-0.807 l-4.238,-8.621 C5.78230161190033,270.62134919404986 2.5173016119003297,246.80634919404983 4.73230161190033,223.00934919404983 l0.6640000000000003,-7.127 h40.315 v-48.194 h47.143 v-47.145 h94.292 V73.39734919404984 h56.574 V167.68734919404983 z" stroke="#141415" fill="#32d079"/>
	<g display="none" id="svg_3" stroke="#141415" fill="#32d079">
		<path display="inline" fill="#32d079" d="M62.68030161190033,319.0963491940498 c6.023,0 11.763,-0.15700000000000006 17.219,-0.464 c0.4760000000000001,-0.026000000000000013 0.932,-0.06300000000000003 1.4020000000000001,-0.09200000000000005 c0.005000000000000002,-0.002000000000000001 0.008000000000000004,-0.002000000000000001 0.012000000000000004,-0.002000000000000001 c13.872,-0.8550000000000002 25.876,-2.708 35.902,-5.57 c0.002000000000000001,-0.002000000000000001 0.004000000000000002,-0.002000000000000001 0.006000000000000004,-0.002000000000000001 c1.823,-0.521 3.588,-1.07 5.282,-1.6560000000000001 c1.8940000000000001,-0.6570000000000003 2.896,-2.725 2.241,-4.618 c-0.6560000000000002,-1.895 -2.722,-2.899 -4.618,-2.24 c-12.734,4.412 -29.535,6.8420000000000005 -50.125,7.298 c-0.002000000000000001,0 -0.004000000000000002,0 -0.005000000000000002,0 c-10.477,0.232 -21.93,-0.04400000000000002 -34.352,-0.8430000000000002 c0,0 0,0 -0.0010000000000000005,0 c-0.6350000000000002,-0.03800000000000001 -1.259,-0.07500000000000002 -1.9,-0.11800000000000004 c-1.995,-0.128 -3.731,1.374 -3.869,3.375 c-0.136,1.999 1.3760000000000001,3.73 3.375,3.866 c2.537,0.17300000000000001 5.03,0.3210000000000001 7.49,0.453 c0.3920000000000001,0.021000000000000008 0.77,0.034000000000000016 1.158,0.05400000000000002 l0,0 C49.15330161190033,318.90334919404984 56.09130161190033,319.0963491940498 62.68030161190033,319.0963491940498 z" id="svg_4" stroke="#141415"/>
	</g>
	<g id="Containers_8_" stroke="#141415" fill="#32d079">
		<path fill-rule="evenodd" clip-rule="evenodd" fill="#32d079" d="M87.79630161190033,178.95034919404983 h3.227 v34.052 h-3.227 V178.95034919404983 zM81.60730161190033,178.95034919404983 h3.354 v34.052 H81.60730161190033 V178.95034919404983 zM75.41530161190033,178.95034919404983 h3.354 v34.052 h-3.354 V178.95034919404983 zM69.22330161190033,178.95034919404983 h3.354 v34.052 h-3.354 V178.95034919404983 zM63.03330161190033,178.95034919404983 H66.38730161190033 v34.052 h-3.354 V178.95034919404983 zM56.97130161190033,178.95034919404983 h3.224 v34.052 h-3.224 V178.95034919404983 zM53.56830161190033,175.54434919404983 h40.858 v40.86 H53.56830161190033 V175.54434919404983 z" id="svg_5" stroke="#141415"/>
		<path fill-rule="evenodd" clip-rule="evenodd" fill="#32d079" d="M134.94130161190034,131.80434919404985 h3.229 v34.051 h-3.229 V131.80434919404985 zM128.75230161190035,131.80434919404985 h3.354 v34.051 h-3.354 V131.80434919404985 zM122.56030161190033,131.80434919404985 h3.354 v34.051 h-3.354 V131.80434919404985 zM116.36830161190034,131.80434919404985 h3.354 v34.051 h-3.354 V131.80434919404985 zM110.18030161190033,131.80434919404985 h3.352 v34.051 h-3.352 V131.80434919404985 zM104.11830161190034,131.80434919404985 h3.222 v34.051 h-3.222 V131.80434919404985 zM100.71130161190032,128.39934919404985 h40.863 v40.859 H100.71130161190032 V128.39934919404985 z" id="svg_6" stroke="#141415"/>
		<path fill-rule="evenodd" clip-rule="evenodd" fill="#32d079" d="M134.94130161190034,178.95034919404983 h3.229 v34.052 h-3.229 V178.95034919404983 zM128.75230161190035,178.95034919404983 h3.354 v34.052 h-3.354 V178.95034919404983 zM122.56030161190033,178.95034919404983 h3.354 v34.052 h-3.354 V178.95034919404983 zM116.36830161190034,178.95034919404983 h3.354 v34.052 h-3.354 V178.95034919404983 zM110.18030161190033,178.95034919404983 h3.352 v34.052 h-3.352 V178.95034919404983 zM104.11830161190034,178.95034919404983 h3.222 v34.052 h-3.222 V178.95034919404983 zM100.71130161190032,175.54434919404983 h40.863 v40.86 H100.71130161190032 V175.54434919404983 z" id="svg_7" stroke="#141415"/>
		<path fill-rule="evenodd" clip-rule="evenodd" fill="#32d079" d="M182.08830161190033,178.95034919404983 h3.225 v34.052 h-3.225 V178.95034919404983 zM175.89730161190033,178.95034919404983 h3.355 v34.052 h-3.355 V178.95034919404983 zM169.70730161190033,178.95034919404983 h3.354 v34.052 h-3.354 V178.95034919404983 zM163.51530161190033,178.95034919404983 h3.354 v34.052 h-3.354 V178.95034919404983 zM157.32330161190032,178.95034919404983 h3.354 v34.052 h-3.354 V178.95034919404983 zM151.26330161190032,178.95034919404983 h3.222 v34.052 h-3.222 V178.95034919404983 zM147.85830161190032,175.54434919404983 h40.861 v40.86 h-40.861 V175.54434919404983 z" id="svg_8" stroke="#141415"/>
		<path fill-rule="evenodd" clip-rule="evenodd" fill="#32d079" d="M182.08830161190033,131.80434919404985 h3.225 v34.051 h-3.225 V131.80434919404985 zM175.89730161190033,131.80434919404985 h3.355 v34.051 h-3.355 V131.80434919404985 zM169.70730161190033,131.80434919404985 h3.354 v34.051 h-3.354 V131.80434919404985 zM163.51530161190033,131.80434919404985 h3.354 v34.051 h-3.354 V131.80434919404985 zM157.32330161190032,131.80434919404985 h3.354 v34.051 h-3.354 V131.80434919404985 zM151.26330161190032,131.80434919404985 h3.222 v34.051 h-3.222 V131.80434919404985 zM147.85830161190032,128.39934919404985 h40.861 v40.859 h-40.861 V128.39934919404985 z" id="svg_9" stroke="#141415"/>
		<path fill-rule="evenodd" clip-rule="evenodd" fill="#32d079" d="M229.23430161190032,178.95034919404983 h3.226 v34.052 h-3.226 V178.95034919404983 zM223.04430161190032,178.95034919404983 h3.354 v34.052 h-3.354 V178.95034919404983 zM216.85230161190032,178.95034919404983 h3.354 v34.052 h-3.354 V178.95034919404983 zM210.66030161190034,178.95034919404983 h3.354 v34.052 h-3.354 V178.95034919404983 zM204.47130161190032,178.95034919404983 h3.354 v34.052 h-3.354 V178.95034919404983 zM198.40830161190033,178.95034919404983 h3.224 v34.052 h-3.224 V178.95034919404983 zM195.00330161190033,175.54434919404983 h40.861 v40.86 h-40.861 V175.54434919404983 z" id="svg_10" stroke="#141415"/>
		<path fill-rule="evenodd" clip-rule="evenodd" fill="#32d079" d="M229.23430161190032,131.80434919404985 h3.226 v34.051 h-3.226 V131.80434919404985 zM223.04430161190032,131.80434919404985 h3.354 v34.051 h-3.354 V131.80434919404985 zM216.85230161190032,131.80434919404985 h3.354 v34.051 h-3.354 V131.80434919404985 zM210.66030161190034,131.80434919404985 h3.354 v34.051 h-3.354 V131.80434919404985 zM204.47130161190032,131.80434919404985 h3.354 v34.051 h-3.354 V131.80434919404985 zM198.40830161190033,131.80434919404985 h3.224 v34.051 h-3.224 V131.80434919404985 zM195.00330161190033,128.39934919404985 h40.861 v40.859 h-40.861 V128.39934919404985 z" id="svg_11" stroke="#141415"/>
		<path fill-rule="evenodd" clip-rule="evenodd" fill="#32d079" d="M229.23430161190032,84.65734919404983 h3.226 v34.053 h-3.226 V84.65734919404983 zM223.04430161190032,84.65734919404983 h3.354 v34.053 h-3.354 V84.65734919404983 zM216.85230161190032,84.65734919404983 h3.354 v34.053 h-3.354 V84.65734919404983 zM210.66030161190034,84.65734919404983 h3.354 v34.053 h-3.354 V84.65734919404983 zM204.47130161190032,84.65734919404983 h3.354 v34.053 h-3.354 V84.65734919404983 zM198.40830161190033,84.65734919404983 h3.224 v34.053 h-3.224 V84.65734919404983 zM195.00330161190033,81.25434919404984 h40.861 v40.86 h-40.861 V81.25434919404984 z" id="svg_12" stroke="#141415"/>
		<path fill-rule="evenodd" clip-rule="evenodd" fill="#32d079" d="M276.3793016119003,178.95034919404983 h3.224 v34.052 h-3.224 V178.95034919404983 zM270.1893016119003,178.95034919404983 h3.352 v34.052 h-3.352 V178.95034919404983 zM263.99530161190035,178.95034919404983 h3.354 v34.052 h-3.354 V178.95034919404983 zM257.80530161190035,178.95034919404983 h3.354 v34.052 h-3.354 V178.95034919404983 zM251.61330161190034,178.95034919404983 h3.354 v34.052 h-3.354 V178.95034919404983 zM245.55130161190033,178.95034919404983 h3.227 v34.052 h-3.227 V178.95034919404983 zM242.14830161190034,175.54434919404983 h40.86 v40.86 h-40.86 V175.54434919404983 z" id="svg_13" stroke="#141415"/>
	</g>
	<path fill-rule="evenodd" clip-rule="evenodd" fill="#32d079" d="M139.01530161190033,282.6513491940498 c6.225,0 11.271,5.049 11.271,11.272 c0,6.225 -5.046,11.271 -11.271,11.271 c-6.226,0 -11.272,-5.046 -11.272,-11.271 C127.74330161190034,287.70034919404986 132.78930161190033,282.6513491940498 139.01530161190033,282.6513491940498 " id="svg_14" stroke="#141415"/>
	<path fill-rule="evenodd" clip-rule="evenodd" d="M139.01530161190033,285.85034919404984 c1.031,0 2.015,0.19400000000000006 2.923,0.546 c-0.984,0.5690000000000002 -1.6500000000000004,1.6350000000000002 -1.6500000000000004,2.854 c0,1.82 1.476,3.293 3.2960000000000003,3.293 c1.247,0 2.329,-0.6930000000000004 2.89,-1.715 c0.3950000000000002,0.9530000000000002 0.6150000000000002,1.999 0.6150000000000002,3.097 c0,4.458 -3.615,8.073 -8.073,8.073 c-4.458,0 -8.074,-3.615 -8.074,-8.073 C130.94130161190034,289.4643491940498 134.55830161190033,285.85034919404984 139.01530161190033,285.85034919404984 " id="svg_15" stroke="#141415" fill="#32d079"/>
	<path fill="#32d079" d="M168.98130161190034,363.88334919404986 c-27.916,-13.247 -43.239,-31.256 -51.765,-50.915 c-10.37,2.9610000000000003 -22.835,4.852 -37.317,5.664 c-5.457,0.3070000000000001 -11.196,0.464 -17.219,0.464 c-6.942,0 -14.26,-0.20500000000000004 -21.94,-0.6130000000000002 c25.6,25.585 57.094,45.283 115.408,45.645 C160.45330161190034,364.1273491940498 164.72730161190032,364.0433491940498 168.98130161190034,363.88334919404986 z" id="svg_16" stroke="#141415"/>
</g></g></svg>