<svg xmlns:rdf="http://www.w3.org/1999/02/22-rdf-syntax-ns#" xmlns="http://www.w3.org/2000/svg" fill-rule="evenodd" xml:space="preserve" height="5.5555555" width="5.5555557" version="1.0" style=""><rect id="backgroundrect" width="100%" height="100%" x="0" y="0" fill="none" stroke="none"/>
	
<g class="currentLayer" style=""><title>Layer 1</title><g id="svg_1" class="" stroke-opacity="1" stroke="#a4a4a4" fill-opacity="1" fill="#a4a4a4">
		<path fill="#a4a4a4" d="m2.695978098611354,0.3891390499999998 c0.6230586600000001,0 1.1903633999999998,0.23876100000000003 1.6156160999999998,0.629672985 c-0.20843190000000003,-0.005592600000000002 -0.4164336,0.11830500000000004 -0.4250376,0.4020219000000001 c-0.01753065000000001,0.5735641499999997 0.6858463500000002,0.6957409500000004 0.3068401500000001,1.8494298000000002 l-0.31350825000000004,0.9542911500000001 l-0.8538394499999999,-2.5151643 c-0.013228650000000003,-0.03893310000000001 0.0021510000000000006,-0.061088400000000015 0.05001075000000002,-0.061088400000000015 h0.241395975 c0.012545707500000003,0 0.02280167550000001,-0.010711980000000003 0.02280167550000001,-0.02383092900000001 v-0.14297697 c0,-0.0131135715 -0.010281780000000004,-0.024367603500000008 -0.02280167550000001,-0.02382555150000001 c-0.457141275,0.019990318500000007 -0.9115938,0.020125831500000003 -1.3633038000000002,0 c-0.012583350000000005,-0.00053775 -0.022800600000000004,0.010755000000000002 -0.022800600000000004,0.023876100000000008 v0.14297697 c0,0.013104967500000002 0.010260270000000004,0.02383092900000001 0.02280167550000001,0.02383092900000001 h0.24271884000000005 c0.05399117550000001,0 0.06910732800000002,0.01799096400000001 0.08183587050000003,0.05279306850000002 l0.35082810000000014,0.95945355 l-0.5277478500000001,1.59356835 l-0.8674983,-2.5551728999999996 c-0.010755000000000002,-0.032049900000000006 0.002258550000000001,-0.05065605000000002 0.033125400000000006,-0.05065605000000002 h0.276564825 c0.012541405500000002,0 0.02279737350000001,-0.010711980000000003 0.02279737350000001,-0.02383092900000001 v-0.14297697 c0,-0.0131135715 -0.010292535000000007,-0.02448268200000001 -0.02279737350000001,-0.02382555150000001 c-0.2901699000000001,0.015412990500000003 -0.5814475649999999,0.0185125815 -0.8527747050000001,0.021298126500000004 c0.4257796950000001,-0.6558829200000001 1.1645514000000001,-1.0899117 2.00462445,-1.0899117 l-0.0000031189500000000017,-0.000006668100000000003 zm2.1006666,1.25112915 c0.18353407500000002,0.3381479550000001 0.28775002499999996,0.7255753200000002 0.28775002499999996,1.1372336999999997 c0,0.9034737749999999 -0.501989625,1.6898256000000003 -1.24209495,2.0957193 l0.7448913000000003,-2.1098083499999998 c0.11540115000000002,-0.32652180000000014 0.22252095000000005,-0.7677994500000003 0.20939985000000005,-1.12314465 h-0.000004302000000000003 zm-1.3010323499999998,3.3882551999999997 c-0.25005374999999996,0.08894385000000003 -0.5191438500000001,0.1374489 -0.7996342500000001,0.1374489 c-0.24166485000000001,0 -0.47483325000000004,-0.03602925000000001 -0.6946654500000004,-0.10271025000000003 l0.7358033250000001,-2.1086253 l0.7584856200000001,2.0739941999999996 v-1.0754999999999998e-7 zm-1.8216819000000002,-0.09184770000000002 c-0.8077112550000001,-0.3830608350000001 -1.3664227500000001,-1.2059581499999998 -1.3664227500000001,-2.1590662499999995 c0,-0.3533232600000002 0.07686060750000002,-0.6887286900000003 0.21461602500000004,-0.9904924799999998 l1.1518604999999997,3.14960175 l0.0000032265000000000016,-0.0000032265000000000016 zm1.0219723649999999,-4.7716708500000005 c1.44256815,0 2.61249705,1.1699289 2.61249705,2.61249705 s-1.1699289,2.61249705 -2.61249705,2.61249705 s-2.61249705,-1.1699289 -2.61249705,-2.61249705 s1.1699289,-2.61249705 2.61249705,-2.61249705 zm0,-0.16513227000000005 c1.5337705499999998,0 2.7776938500000004,1.2439233 2.7776938500000004,2.7776938500000004 s-1.2439233,2.7776938500000004 -2.7776938500000004,2.7776938500000004 s-2.7776938500000004,-1.2439233 -2.7776938500000004,-2.7776938500000004 s1.2439233,-2.7776938500000004 2.7776938500000004,-2.7776938500000004 z" stroke-width="0" id="svg_2" stroke="#a4a4a4"/>
	</g></g></svg>